<svg width="98" height="90" viewBox="0 0 98 90" fill="none" xmlns="http://www.w3.org/2000/svg">
<g filter="url(#filter0_d_1_1141)">
<path d="M23.9594 13.2351C12.9539 13.2351 4.00146 22.1876 4.00146 33.1932C4.00146 43.8101 12.3332 52.518 22.8018 53.1196C22.983 55.0765 22.847 60.4035 17.7425 67.8138C17.3566 68.3728 17.4267 69.1266 17.9059 69.6059C19.9947 71.6947 21.2857 73.0103 22.1892 73.9304C23.3717 75.1334 23.9114 75.6827 24.701 76.3996C24.9688 76.6426 25.3066 76.7648 25.6459 76.7648C25.9754 76.7648 26.3036 76.6495 26.5687 76.4202C35.4635 68.6803 45.3444 52.6883 43.9148 33.0915C43.0771 21.5861 34.6849 13.2351 23.9594 13.2351ZM25.6595 73.4374C25.2765 73.0598 24.8397 72.6148 24.1956 71.9597C23.4129 71.1619 22.339 70.0687 20.7102 68.4345C26.9052 58.8887 25.7351 52.0896 25.2229 51.1146C24.9798 50.6518 24.4812 50.34 23.9594 50.34C14.5057 50.34 6.81396 42.6482 6.81396 33.1932C6.81396 23.7394 14.5057 16.0476 23.9594 16.0476C33.1688 16.0476 40.3813 23.3013 41.1104 33.2947C42.7172 55.3361 29.6174 69.6471 25.6595 73.4374Z" fill="#445964"/>
<path d="M93.86 33.0915V33.0901C93.0195 21.5861 84.626 13.2351 73.9033 13.2351C62.8977 13.2351 53.9439 22.1876 53.9439 33.1932C53.9439 43.8101 62.277 52.518 72.747 53.1196C72.9282 55.0751 72.7908 60.3993 67.685 67.8138C67.2992 68.3728 67.3692 69.1266 67.8484 69.6059C69.929 71.6864 71.2171 72.9993 72.1208 73.918C73.3086 75.1292 73.8512 75.6813 74.6448 76.4009C74.9126 76.6426 75.2518 76.7648 75.5897 76.7648C75.9193 76.7648 76.2475 76.6495 76.5125 76.4188C85.4073 68.6789 95.2882 52.687 93.86 33.0915ZM75.6033 73.4374C75.2175 73.057 74.7768 72.6094 74.1271 71.9474C73.3443 71.1508 72.2746 70.0605 70.6526 68.4345C76.8476 58.8873 75.679 52.0896 75.1681 51.1146C74.925 50.6532 74.4252 50.34 73.9033 50.34C64.4481 50.34 56.7564 42.6482 56.7564 33.1932C56.7564 23.7394 64.4481 16.0476 73.9033 16.0476C83.1112 16.0476 90.3251 23.3013 91.0556 33.2961V33.2947C92.661 55.3333 79.5612 69.6471 75.6033 73.4374Z" fill="#445964"/>
</g>
<defs>
<filter id="filter0_d_1_1141" x="0" y="0" width="98" height="98" filterUnits="userSpaceOnUse" color-interpolation-filters="sRGB">
<feFlood flood-opacity="0" result="BackgroundImageFix"/>
<feColorMatrix in="SourceAlpha" type="matrix" values="0 0 0 0 0 0 0 0 0 0 0 0 0 0 0 0 0 0 127 0" result="hardAlpha"/>
<feOffset dy="4"/>
<feGaussianBlur stdDeviation="2"/>
<feComposite in2="hardAlpha" operator="out"/>
<feColorMatrix type="matrix" values="0 0 0 0 0 0 0 0 0 0 0 0 0 0 0 0 0 0 0.25 0"/>
<feBlend mode="normal" in2="BackgroundImageFix" result="effect1_dropShadow_1_1141"/>
<feBlend mode="normal" in="SourceGraphic" in2="effect1_dropShadow_1_1141" result="shape"/>
</filter>
</defs>
</svg>
