<svg width="212" height="98" viewBox="0 0 212 98" fill="none" xmlns="http://www.w3.org/2000/svg">
<path d="M57 33H51.041V13.4883C51.041 11.7891 51.3926 10.3594 52.0957 9.19922C52.8105 8.02734 53.8359 7.14258 55.1719 6.54492C56.5078 5.93555 58.125 5.63086 60.0234 5.63086C61.1016 5.63086 62.1387 5.72461 63.1348 5.91211C64.1309 6.09961 65.1621 6.3457 66.2285 6.65039L65.4023 11.3262C64.7109 11.1387 63.9844 10.9629 63.2227 10.7988C62.4727 10.6348 61.5293 10.5527 60.3926 10.5527C59.3262 10.5527 58.4941 10.8047 57.8965 11.3086C57.2988 11.8125 57 12.5391 57 13.4883V33ZM60.7266 13.9805V18.0938H48.2988V13.9805H60.7266ZM68.9355 13.9805V33H62.9941V13.9805H68.9355ZM84.5449 13.9805H89.9238V32.2617C89.9238 34.0195 89.5195 35.5078 88.7109 36.7266C87.9023 37.957 86.7715 38.8887 85.3184 39.5215C83.877 40.166 82.1895 40.4883 80.2559 40.4883C79.4004 40.4883 78.5273 40.377 77.6367 40.1543C76.7461 39.9434 75.9141 39.627 75.1406 39.2051C74.3672 38.7832 73.7168 38.2617 73.1895 37.6406L75.668 34.1602C76.1484 34.6992 76.752 35.1562 77.4785 35.5312C78.2051 35.918 79.0605 36.1113 80.0449 36.1113C80.9004 36.1113 81.6152 35.959 82.1895 35.6543C82.7754 35.3496 83.2207 34.9043 83.5254 34.3184C83.8301 33.7441 83.9824 33.0469 83.9824 32.2266V18.4805L84.5449 13.9805ZM71.9062 23.7188V23.3496C71.9062 21.9082 72.082 20.5957 72.4336 19.4121C72.7969 18.2168 73.3125 17.1914 73.9805 16.3359C74.6602 15.4688 75.4805 14.8008 76.4414 14.332C77.4023 13.8633 78.4863 13.6289 79.6934 13.6289C80.9941 13.6289 82.0605 13.8809 82.8926 14.3848C83.7363 14.877 84.4102 15.5684 84.9141 16.459C85.4297 17.3496 85.8281 18.3926 86.1094 19.5879C86.4023 20.7715 86.6484 22.0488 86.8477 23.4199V23.8594C86.6484 25.1484 86.373 26.3672 86.0215 27.5156C85.6816 28.6523 85.2363 29.6602 84.6855 30.5391C84.1348 31.418 83.4434 32.1094 82.6113 32.6133C81.791 33.1055 80.8066 33.3516 79.6582 33.3516C78.4629 33.3516 77.3848 33.1113 76.4238 32.6309C75.4746 32.1504 74.6602 31.4766 73.9805 30.6094C73.3125 29.7422 72.7969 28.7227 72.4336 27.5508C72.082 26.3789 71.9062 25.1016 71.9062 23.7188ZM77.8301 23.3496V23.7188C77.8301 24.4336 77.8945 25.0957 78.0234 25.7051C78.1641 26.3145 78.375 26.8535 78.6562 27.3223C78.9375 27.7793 79.2832 28.1367 79.6934 28.3945C80.1152 28.6523 80.6074 28.7812 81.1699 28.7812C82.0254 28.7812 82.7168 28.5996 83.2441 28.2363C83.7715 27.873 84.1523 27.3574 84.3867 26.6895C84.6211 26.0215 84.7207 25.2363 84.6855 24.334V22.9453C84.709 22.1719 84.6562 21.4922 84.5273 20.9062C84.3984 20.3086 84.1934 19.8105 83.9121 19.4121C83.6426 19.0137 83.2793 18.7148 82.8223 18.5156C82.377 18.3047 81.8379 18.1992 81.2051 18.1992C80.6543 18.1992 80.168 18.3281 79.7461 18.5859C79.3242 18.8438 78.9727 19.207 78.6914 19.6758C78.4102 20.1328 78.1934 20.6777 78.041 21.3105C77.9004 21.9316 77.8301 22.6113 77.8301 23.3496ZM99.3105 18.0059V33H93.3867V13.9805H98.9414L99.3105 18.0059ZM98.5898 22.8398L97.2363 22.875C97.2363 21.5391 97.3945 20.3086 97.7109 19.1836C98.0273 18.0586 98.4961 17.0801 99.1172 16.248C99.7383 15.416 100.5 14.7715 101.402 14.3145C102.316 13.8574 103.371 13.6289 104.566 13.6289C105.398 13.6289 106.154 13.7578 106.834 14.0156C107.514 14.2617 108.1 14.6543 108.592 15.1934C109.084 15.7207 109.459 16.4121 109.717 17.2676C109.986 18.1113 110.121 19.125 110.121 20.3086V33H104.197V21.0645C104.197 20.2559 104.104 19.6465 103.916 19.2363C103.74 18.8262 103.482 18.5508 103.143 18.4102C102.803 18.2695 102.387 18.1992 101.895 18.1992C101.379 18.1992 100.916 18.3164 100.506 18.5508C100.096 18.7852 99.7441 19.1133 99.4512 19.5352C99.1699 19.9453 98.9531 20.4316 98.8008 20.9941C98.6602 21.5566 98.5898 22.1719 98.5898 22.8398ZM109.453 22.8398L107.801 22.875C107.801 21.5391 107.947 20.3086 108.24 19.1836C108.545 18.0586 108.996 17.0801 109.594 16.248C110.203 15.416 110.959 14.7715 111.861 14.3145C112.764 13.8574 113.812 13.6289 115.008 13.6289C115.875 13.6289 116.672 13.7578 117.398 14.0156C118.125 14.2734 118.752 14.6895 119.279 15.2637C119.807 15.8379 120.217 16.5996 120.51 17.5488C120.803 18.4863 120.949 19.6465 120.949 21.0293V33H115.008V21.0293C115.008 20.2441 114.914 19.6523 114.727 19.2539C114.551 18.8438 114.293 18.5684 113.953 18.4277C113.613 18.2754 113.209 18.1992 112.74 18.1992C112.178 18.1992 111.691 18.3164 111.281 18.5508C110.871 18.7852 110.525 19.1133 110.244 19.5352C109.975 19.9453 109.775 20.4316 109.646 20.9941C109.518 21.5566 109.453 22.1719 109.453 22.8398ZM134.221 28.2188V20.3789C134.221 19.8398 134.145 19.377 133.992 18.9902C133.84 18.6035 133.6 18.3047 133.271 18.0938C132.943 17.8711 132.504 17.7598 131.953 17.7598C131.508 17.7598 131.127 17.8359 130.811 17.9883C130.494 18.1406 130.254 18.3691 130.09 18.6738C129.926 18.9785 129.844 19.3652 129.844 19.834H123.92C123.92 18.9551 124.113 18.1406 124.5 17.3906C124.898 16.6289 125.461 15.9668 126.188 15.4043C126.926 14.8418 127.805 14.4082 128.824 14.1035C129.855 13.7871 131.004 13.6289 132.27 13.6289C133.781 13.6289 135.129 13.8809 136.312 14.3848C137.508 14.8887 138.451 15.6445 139.143 16.6523C139.834 17.6484 140.18 18.9023 140.18 20.4141V28.2012C140.18 29.4434 140.25 30.3867 140.391 31.0312C140.531 31.6641 140.73 32.2207 140.988 32.7012V33H135.047C134.766 32.4141 134.555 31.6992 134.414 30.8555C134.285 30 134.221 29.1211 134.221 28.2188ZM134.941 21.3809L134.977 24.5449H132.357C131.807 24.5449 131.338 24.6211 130.951 24.7734C130.576 24.9258 130.271 25.1367 130.037 25.4062C129.814 25.6641 129.65 25.957 129.545 26.2852C129.451 26.6133 129.404 26.959 129.404 27.3223C129.404 27.6738 129.486 27.9902 129.65 28.2715C129.826 28.541 130.061 28.752 130.354 28.9043C130.646 29.0566 130.975 29.1328 131.338 29.1328C131.994 29.1328 132.551 29.0098 133.008 28.7637C133.477 28.5059 133.834 28.1953 134.08 27.832C134.326 27.4688 134.449 27.1289 134.449 26.8125L135.75 29.2383C135.516 29.707 135.246 30.1816 134.941 30.6621C134.648 31.1426 134.279 31.5879 133.834 31.998C133.4 32.3965 132.867 32.7246 132.234 32.9824C131.602 33.2285 130.834 33.3516 129.932 33.3516C128.76 33.3516 127.682 33.1113 126.697 32.6309C125.725 32.1504 124.945 31.4824 124.359 30.627C123.773 29.7598 123.48 28.7637 123.48 27.6387C123.48 26.6543 123.656 25.7754 124.008 25.002C124.371 24.2285 124.916 23.5723 125.643 23.0332C126.369 22.4941 127.295 22.084 128.42 21.8027C129.545 21.5215 130.869 21.3809 132.393 21.3809H134.941Z" fill="#445964"/>
<path d="M32.8107 65.6402L21.1834 58.8588C19.2199 57.7137 16.7802 57.7138 14.8166 58.8588L3.1894 65.6402C1.22207 66.7874 0 68.927 0 71.2239V84.776C0 87.0729 1.22207 89.2125 3.18932 90.3598L14.8166 97.1411C16.7805 98.2865 19.2201 98.2861 21.1834 97.1411L32.8106 90.3598C34.7779 89.2125 36 87.0729 36 84.776V71.2239C36 68.9271 34.7779 66.7875 32.8107 65.6402ZM32.9099 84.776C32.9099 85.9592 32.2804 87.0613 31.267 87.6522L19.6397 94.4335C18.6282 95.0235 17.3717 95.0235 16.3602 94.4335L4.73292 87.6522C3.71959 87.0612 3.09013 85.9592 3.09013 84.776V71.2239C3.09013 70.0409 3.71959 68.9388 4.733 68.3478L16.3602 61.5665C17.3718 60.9765 18.6287 60.9767 19.6398 61.5665L31.2671 68.3477C32.2804 68.9388 32.9099 70.0408 32.9099 71.2239V84.776Z" fill="#445964"/>
<path d="M76.8107 65.6402L65.1834 58.8588C63.2199 57.7137 60.7802 57.7138 58.8166 58.8588L47.1894 65.6402C45.2221 66.7874 44 68.927 44 71.2239V84.776C44 87.0729 45.2221 89.2125 47.1893 90.3598L58.8166 97.1411C60.7805 98.2865 63.2201 98.2861 65.1834 97.1411L76.8106 90.3598C78.7779 89.2125 80 87.0729 80 84.776V71.2239C80 68.9271 78.7779 66.7875 76.8107 65.6402ZM76.9099 84.776C76.9099 85.9592 76.2804 87.0613 75.267 87.6522L63.6397 94.4335C62.6282 95.0235 61.3717 95.0235 60.3602 94.4335L48.7329 87.6522C47.7196 87.0612 47.0901 85.9592 47.0901 84.776V71.2239C47.0901 70.0409 47.7196 68.9388 48.733 68.3478L60.3602 61.5665C61.3718 60.9765 62.6287 60.9767 63.6398 61.5665L75.2671 68.3477C76.2804 68.9388 76.9099 70.0408 76.9099 71.2239V84.776Z" fill="#445964"/>
<path d="M120.811 65.6402L109.183 58.8588C107.22 57.7137 104.78 57.7138 102.817 58.8588L91.1894 65.6402C89.2221 66.7874 88 68.927 88 71.2239V84.776C88 87.0729 89.2221 89.2125 91.1893 90.3598L102.817 97.1411C104.78 98.2865 107.22 98.2861 109.183 97.1411L120.811 90.3598C122.778 89.2125 124 87.0729 124 84.776V71.2239C124 68.9271 122.778 66.7875 120.811 65.6402ZM120.91 84.776C120.91 85.9592 120.28 87.0613 119.267 87.6522L107.64 94.4335C106.628 95.0235 105.372 95.0235 104.36 94.4335L92.7329 87.6522C91.7196 87.0612 91.0901 85.9592 91.0901 84.776V71.2239C91.0901 70.0409 91.7196 68.9388 92.733 68.3478L104.36 61.5665C105.372 60.9765 106.629 60.9767 107.64 61.5665L119.267 68.3477C120.28 68.9388 120.91 70.0408 120.91 71.2239V84.776Z" fill="#445964"/>
<path d="M164.811 65.6402L153.183 58.8588C151.22 57.7137 148.78 57.7138 146.817 58.8588L135.189 65.6402C133.222 66.7874 132 68.927 132 71.2239V84.776C132 87.0729 133.222 89.2125 135.189 90.3598L146.817 97.1411C148.78 98.2865 151.22 98.2861 153.183 97.1411L164.811 90.3598C166.778 89.2125 168 87.0729 168 84.776V71.2239C168 68.9271 166.778 66.7875 164.811 65.6402ZM164.91 84.776C164.91 85.9592 164.28 87.0613 163.267 87.6522L151.64 94.4335C150.628 95.0235 149.372 95.0235 148.36 94.4335L136.733 87.6522C135.72 87.0612 135.09 85.9592 135.09 84.776V71.2239C135.09 70.0409 135.72 68.9388 136.733 68.3478L148.36 61.5665C149.372 60.9765 150.629 60.9767 151.64 61.5665L163.267 68.3477C164.28 68.9388 164.91 70.0408 164.91 71.2239V84.776Z" fill="#445964"/>
<path d="M208.811 65.6402L197.183 58.8588C195.22 57.7137 192.78 57.7138 190.817 58.8588L179.189 65.6402C177.222 66.7874 176 68.927 176 71.2239V84.776C176 87.0729 177.222 89.2125 179.189 90.3598L190.817 97.1411C192.78 98.2865 195.22 98.2861 197.183 97.1411L208.811 90.3598C210.778 89.2125 212 87.0729 212 84.776V71.2239C212 68.9271 210.778 66.7875 208.811 65.6402ZM208.91 84.776C208.91 85.9592 208.28 87.0613 207.267 87.6522L195.64 94.4335C194.628 95.0235 193.372 95.0235 192.36 94.4335L180.733 87.6522C179.72 87.0612 179.09 85.9592 179.09 84.776V71.2239C179.09 70.0409 179.72 68.9388 180.733 68.3478L192.36 61.5665C193.372 60.9765 194.629 60.9767 195.64 61.5665L207.267 68.3477C208.28 68.9388 208.91 70.0408 208.91 71.2239V84.776Z" fill="#445964" fill-opacity="0.2"/>
</svg>
