<?xml version="1.0" standalone="no"?>
<!DOCTYPE svg PUBLIC "-//W3C//DTD SVG 20010904//EN"
 "http://www.w3.org/TR/2001/REC-SVG-20010904/DTD/svg10.dtd">
<svg version="1.0" xmlns="http://www.w3.org/2000/svg"
 width="3840.000000pt" height="2162.000000pt" viewBox="0 0 3840.000000 2162.000000"
 preserveAspectRatio="xMidYMid meet">

<g transform="translate(0.000000,2162.000000) scale(0.100000,-0.100000)"
fill="#000000" stroke="none">
<path d="M0 10810 l0 -10810 19200 0 19200 0 0 10810 0 10810 -19200 0 -19200
0 0 -10810z m34890 9850 l0 -40 -40 0 -40 0 0 40 0 40 40 0 40 0 0 -40z
m-20200 -2340 l0 -40 -40 0 -40 0 0 40 0 40 40 0 40 0 0 -40z m1760 -1165 l0
-45 -45 0 -45 0 0 45 0 45 45 0 45 0 0 -45z m-170 -505 l0 -40 -45 0 -45 0 0
40 0 40 45 0 45 0 0 -40z m920 -830 l0 -40 -45 0 -45 0 0 40 0 40 45 0 45 0 0
-40z m11270 -4090 l0 -40 -45 0 -45 0 0 40 0 40 45 0 45 0 0 -40z m-11860
-1005 l0 -125 -40 0 -40 0 0 40 0 40 -40 0 -40 0 0 85 0 85 80 0 80 0 0 -125z
m5180 -85 l0 -40 -45 0 -45 0 0 40 0 40 45 0 45 0 0 -40z m-1250 -330 l0 -290
-85 0 -85 0 0 -125 0 -125 85 0 85 0 0 -85 0 -85 40 0 40 0 0 -40 0 -40 -40 0
-40 0 0 -85 0 -85 -125 0 -125 0 0 210 0 210 -130 0 -130 0 0 415 0 415 255 0
255 0 0 -290z m-4680 -40 l0 -250 -125 0 -125 0 0 250 0 250 125 0 125 0 0
-250z m5760 205 l0 -45 -40 0 -40 0 0 45 0 45 40 0 40 0 0 -45z m170 0 l0 -45
-45 0 -45 0 0 45 0 45 45 0 45 0 0 -45z m-6260 -85 l0 -40 -45 0 -45 0 0 40 0
40 45 0 45 0 0 -40z m1080 -625 l0 -665 -40 0 -40 0 0 40 0 40 -85 0 -85 0 0
85 0 85 -85 0 -85 0 0 125 0 125 130 0 130 0 0 -85 0 -85 40 0 40 0 0 125 0
125 -210 0 -210 0 0 45 0 45 40 0 40 0 0 40 0 40 -40 0 -40 0 0 40 0 40 40 0
40 0 0 45 0 45 -40 0 -40 0 0 40 0 40 40 0 40 0 0 40 0 40 -40 0 -40 0 0 45 0
45 40 0 40 0 0 80 0 80 210 0 210 0 0 -665z m5010 545 l0 -40 -40 0 -40 0 0
40 0 40 40 0 40 0 0 -40z m170 0 l0 -40 -45 0 -45 0 0 40 0 40 45 0 45 0 0
-40z m1170 0 l0 -40 40 0 40 0 0 -45 0 -45 -40 0 -40 0 0 45 0 45 -45 0 -45 0
0 -125 0 -125 -40 0 -40 0 0 165 0 165 85 0 85 0 0 -40z m-7430 -85 l0 -45
-45 0 -45 0 0 45 0 45 45 0 45 0 0 -45z m500 0 l0 -45 -45 0 -45 0 0 45 0 45
45 0 45 0 0 -45z m6680 -80 l0 -125 -45 0 -45 0 0 125 0 125 45 0 45 0 0 -125z
m-1840 -5 l0 -40 -40 0 -40 0 0 40 0 40 40 0 40 0 0 -40z m170 0 l0 -40 -45 0
-45 0 0 40 0 40 45 0 45 0 0 -40z m410 -125 l0 -165 -40 0 -40 0 0 40 0 40
-40 0 -40 0 0 -40 0 -40 -85 0 -85 0 0 125 0 125 40 0 40 0 0 40 0 40 125 0
125 0 0 -165z m170 125 l0 -40 -40 0 -40 0 0 40 0 40 40 0 40 0 0 -40z m-5590
-80 l0 -40 -45 0 -45 0 0 40 0 40 45 0 45 0 0 -40z m6090 0 l0 -40 -40 0 -40
0 0 40 0 40 40 0 40 0 0 -40z m250 0 l0 -40 -80 0 -80 0 0 40 0 40 80 0 80 0
0 -40z m670 0 l0 -40 -40 0 -40 0 0 40 0 40 40 0 40 0 0 -40z m-6010 -85 l0
-45 -40 0 -40 0 0 45 0 45 40 0 40 0 0 -45z m170 0 l0 -45 -45 0 -45 0 0 45 0
45 45 0 45 0 0 -45z m410 0 l0 -45 -40 0 -40 0 0 45 0 45 40 0 40 0 0 -45z
m170 0 l0 -45 -40 0 -40 0 0 45 0 45 40 0 40 0 0 -45z m170 0 l0 -45 -45 0
-45 0 0 45 0 45 45 0 45 0 0 -45z m670 0 l0 -45 -45 0 -45 0 0 45 0 45 45 0
45 0 0 -45z m160 0 l0 -45 -40 0 -40 0 0 45 0 45 40 0 40 0 0 -45z m2090 0 l0
-45 -40 0 -40 0 0 45 0 45 40 0 40 0 0 -45z m170 0 l0 -45 -45 0 -45 0 0 45 0
45 45 0 45 0 0 -45z m580 0 l0 -45 -40 0 -40 0 0 45 0 45 40 0 40 0 0 -45z
m170 0 l0 -45 -45 0 -45 0 0 45 0 45 45 0 45 0 0 -45z m-5930 -170 l0 -125 40
0 40 0 0 45 0 45 45 0 45 0 0 -45 0 -45 -45 0 -45 0 0 -40 0 -40 -40 0 -40 0
0 -85 0 -85 -40 0 -40 0 0 45 0 45 -45 0 -45 0 0 80 0 80 -40 0 -40 0 0 85 0
85 40 0 40 0 0 40 0 40 85 0 85 0 0 -125z m170 85 l0 -40 -45 0 -45 0 0 40 0
40 45 0 45 0 0 -40z m3340 0 l0 -40 -45 0 -45 0 0 40 0 40 45 0 45 0 0 -40z
m160 0 l0 -40 -40 0 -40 0 0 40 0 40 40 0 40 0 0 -40z m2590 0 l0 -40 -40 0
-40 0 0 40 0 40 40 0 40 0 0 -40z m250 0 l0 -40 -80 0 -80 0 0 40 0 40 80 0
80 0 0 -40z m340 -85 l0 -125 -45 0 -45 0 0 125 0 125 45 0 45 0 0 -125z m160
45 l0 -80 85 0 85 0 0 -45 0 -45 -125 0 -125 0 0 125 0 125 40 0 40 0 0 -80z
m170 40 l0 -40 -40 0 -40 0 0 40 0 40 40 0 40 0 0 -40z m670 0 l0 -40 -85 0
-85 0 0 40 0 40 85 0 85 0 0 -40z m250 0 l0 -40 -85 0 -85 0 0 40 0 40 85 0
85 0 0 -40z m-9850 -80 l0 -40 -45 0 -45 0 0 40 0 40 45 0 45 0 0 -40z m160 0
l0 -40 -40 0 -40 0 0 40 0 40 40 0 40 0 0 -40z m2590 0 l0 -40 -80 0 -80 0 0
40 0 40 80 0 80 0 0 -40z m170 0 l0 -40 -40 0 -40 0 0 40 0 40 40 0 40 0 0
-40z m170 0 l0 -40 -45 0 -45 0 0 40 0 40 45 0 45 0 0 -40z m1000 0 l0 -40
-45 0 -45 0 0 40 0 40 45 0 45 0 0 -40z m420 0 l0 -40 -45 0 -45 0 0 40 0 40
45 0 45 0 0 -40z m2250 0 l0 -40 -40 0 -40 0 0 40 0 40 40 0 40 0 0 -40z m170
0 l0 -40 -45 0 -45 0 0 40 0 40 45 0 45 0 0 -40z m-8690 -85 l0 -45 -40 0 -40
0 0 45 0 45 40 0 40 0 0 -45z m170 0 l0 -45 -40 0 -40 0 0 45 0 45 40 0 40 0
0 -45z m1170 0 l0 -45 -40 0 -40 0 0 45 0 45 40 0 40 0 0 -45z m1750 -40 l0
-85 -80 0 -80 0 0 40 0 40 -85 0 -85 0 0 45 0 45 165 0 165 0 0 -85z m3010 40
l0 -45 -85 0 -85 0 0 45 0 45 85 0 85 0 0 -45z m580 0 l0 -45 -40 0 -40 0 0
45 0 45 40 0 40 0 0 -45z m170 0 l0 -45 -40 0 -40 0 0 45 0 45 40 0 40 0 0
-45z m500 -40 l0 -85 40 0 40 0 0 -40 0 -40 -40 0 -40 0 0 40 0 40 -85 0 -85
0 0 85 0 85 85 0 85 0 0 -85z m1590 0 l0 -85 -85 0 -85 0 0 85 0 85 85 0 85 0
0 -85z m580 40 l0 -45 -125 0 -125 0 0 45 0 45 125 0 125 0 0 -45z m1590 0 l0
-45 -85 0 -85 0 0 45 0 45 85 0 85 0 0 -45z m250 0 l0 -45 -85 0 -85 0 0 45 0
45 85 0 85 0 0 -45z m160 0 l0 -45 -40 0 -40 0 0 45 0 45 40 0 40 0 0 -45z
m-10850 -85 l0 -40 -40 0 -40 0 0 40 0 40 40 0 40 0 0 -40z m170 0 l0 -40 -40
0 -40 0 0 40 0 40 40 0 40 0 0 -40z m170 0 l0 -40 -45 0 -45 0 0 40 0 40 45 0
45 0 0 -40z m910 0 l0 -40 -40 0 -40 0 0 40 0 40 40 0 40 0 0 -40z m340 0 l0
-40 -40 0 -40 0 0 40 0 40 40 0 40 0 0 -40z m4170 0 l0 -40 -40 0 -40 0 0 40
0 40 40 0 40 0 0 -40z m3680 0 l0 -40 -45 0 -45 0 0 40 0 40 45 0 45 0 0 -40z
m-5100 -80 l0 -40 -40 0 -40 0 0 40 0 40 40 0 40 0 0 -40z m1090 0 l0 -40 -40
0 -40 0 0 40 0 40 40 0 40 0 0 -40z m1500 0 l0 -40 -40 0 -40 0 0 40 0 40 40
0 40 0 0 -40z m840 0 l0 -40 -45 0 -45 0 0 40 0 40 45 0 45 0 0 -40z m3170 0
l0 -40 -85 0 -85 0 0 40 0 40 85 0 85 0 0 -40z m500 0 l0 -40 -40 0 -40 0 0
40 0 40 40 0 40 0 0 -40z m250 0 l0 -40 -40 0 -40 0 0 40 0 40 40 0 40 0 0
-40z m-9350 -85 l0 -45 -40 0 -40 0 0 45 0 45 40 0 40 0 0 -45z m2420 0 l0
-45 -40 0 -40 0 0 45 0 45 40 0 40 0 0 -45z m4680 0 l0 -45 -45 0 -45 0 0 45
0 45 45 0 45 0 0 -45z m3670 0 l0 -45 -40 0 -40 0 0 45 0 45 40 0 40 0 0 -45z
m-3420 -85 l0 -40 -45 0 -45 0 0 40 0 40 45 0 45 0 0 -40z m-14450 -80 l0 -40
-40 0 -40 0 0 40 0 40 40 0 40 0 0 -40z m15700 0 l0 -40 -45 0 -45 0 0 40 0
40 45 0 45 0 0 -40z m-15110 -85 l0 -45 -40 0 -40 0 0 45 0 45 40 0 40 0 0
-45z m18950 0 l0 -45 -45 0 -45 0 0 45 0 45 45 0 45 0 0 -45z m750 -85 l0 -40
-40 0 -40 0 0 40 0 40 40 0 40 0 0 -40z m330 0 l0 -40 -40 0 -40 0 0 40 0 40
40 0 40 0 0 -40z m-12850 -1960 l0 -80 -125 0 -125 0 0 80 0 80 125 0 125 0 0
-80z m3920 0 l0 -80 -250 0 -250 0 0 80 0 80 250 0 250 0 0 -80z m8020 0 l0
-80 -45 0 -45 0 0 80 0 80 45 0 45 0 0 -80z m330 0 l0 -80 -40 0 -40 0 0 80 0
80 40 0 40 0 0 -80z m580 0 l0 -80 -40 0 -40 0 0 80 0 80 40 0 40 0 0 -80z
m-20030 -165 l0 -85 -40 0 -40 0 0 85 0 85 40 0 40 0 0 -85z m7760 0 l0 -85
45 0 45 0 0 -125 0 -125 -45 0 -45 0 0 -250 0 -250 -80 0 -80 0 0 -45 0 -45
205 0 205 0 0 -80 0 -80 -40 0 -40 0 0 -85 0 -85 125 0 125 0 0 -125 0 -125
85 0 85 0 0 40 0 40 -45 0 -45 0 0 85 0 85 45 0 45 0 0 85 0 85 -45 0 -45 0 0
80 0 80 -40 0 -40 0 0 -80 0 -80 -40 0 -40 0 0 80 0 80 40 0 40 0 0 45 0 45
85 0 85 0 0 165 0 165 80 0 80 0 0 -85 0 -85 -40 0 -40 0 0 -125 0 -125 40 0
40 0 0 -165 0 -165 125 0 125 0 0 -85 0 -85 -40 0 -40 0 0 -40 0 -40 250 0
250 0 0 210 0 210 -40 0 -40 0 0 80 0 80 40 0 40 0 0 45 0 45 210 0 210 0 0
80 0 80 -40 0 -40 0 0 85 0 85 165 0 165 0 0 -85 0 -85 40 0 40 0 0 -80 0 -80
45 0 45 0 0 -45 0 -45 -45 0 -45 0 0 45 0 45 -80 0 -80 0 0 -45 0 -45 -45 0
-45 0 0 -40 0 -40 -40 0 -40 0 0 -125 0 -125 40 0 40 0 0 85 0 85 45 0 45 0 0
-170 0 -170 40 0 40 0 0 170 0 170 40 0 40 0 0 -170 0 -170 -40 0 -40 0 0 -40
0 -40 85 0 85 0 0 210 0 210 125 0 125 0 0 125 0 125 40 0 40 0 0 80 0 80 40
0 40 0 0 85 0 85 125 0 125 0 0 -85 0 -85 85 0 85 0 0 85 0 85 40 0 40 0 0
-165 0 -165 -80 0 -80 0 0 -45 0 -45 -125 0 -125 0 0 -165 0 -165 80 0 80 0 0
-85 0 -85 85 0 85 0 0 250 0 250 210 0 210 0 0 45 0 45 85 0 85 0 0 250 0 250
40 0 40 0 0 40 0 40 125 0 125 0 0 -40 0 -40 -40 0 -40 0 0 -85 0 -85 40 0 40
0 0 -85 0 -85 -40 0 -40 0 0 -80 0 -80 40 0 40 0 0 -45 0 -45 40 0 40 0 0 -80
0 -80 -40 0 -40 0 0 -85 0 -85 125 0 125 0 0 -85 0 -85 -40 0 -40 0 0 -40 0
-40 40 0 40 0 0 -85 0 -85 -40 0 -40 0 0 45 0 45 -45 0 -45 0 0 40 0 40 -40 0
-40 0 0 -40 0 -40 -40 0 -40 0 0 -45 0 -45 80 0 80 0 0 -165 0 -165 -80 0 -80
0 0 -210 0 -210 -85 0 -85 0 0 -125 0 -125 -170 0 -170 0 0 125 0 125 -80 0
-80 0 0 170 0 170 -45 0 -45 0 0 -85 0 -85 -40 0 -40 0 0 125 0 125 -85 0 -85
0 0 -85 0 -85 -80 0 -80 0 0 -125 0 -125 -45 0 -45 0 0 125 0 125 -80 0 -80 0
0 45 0 45 80 0 80 0 0 250 0 250 -125 0 -125 0 0 40 0 40 -40 0 -40 0 0 -40 0
-40 -85 0 -85 0 0 -45 0 -45 85 0 85 0 0 -125 0 -125 -85 0 -85 0 0 -80 0 -80
-80 0 -80 0 0 -85 0 -85 -170 0 -170 0 0 125 0 125 85 0 85 0 0 40 0 40 -85 0
-85 0 0 210 0 210 -125 0 -125 0 0 -85 0 -85 85 0 85 0 0 -80 0 -80 -335 0
-335 0 0 165 0 165 -40 0 -40 0 0 85 0 85 -85 0 -85 0 0 -170 0 -170 85 0 85
0 0 -165 0 -165 -85 0 -85 0 0 -40 0 -40 -210 0 -210 0 0 -210 0 -210 -40 0
-40 0 0 250 0 250 -85 0 -85 0 0 -250 0 -250 -80 0 -80 0 0 -85 0 -85 80 0 80
0 0 -85 0 -85 -210 0 -210 0 0 85 0 85 -40 0 -40 0 0 125 0 125 -40 0 -40 0 0
-125 0 -125 -45 0 -45 0 0 165 0 165 -40 0 -40 0 0 -125 0 -125 -165 0 -165 0
0 85 0 85 125 0 125 0 0 85 0 85 -45 0 -45 0 0 85 0 85 -40 0 -40 0 0 40 0 40
85 0 85 0 0 -40 0 -40 40 0 40 0 0 40 0 40 85 0 85 0 0 -40 0 -40 40 0 40 0 0
40 0 40 125 0 125 0 0 40 0 40 -40 0 -40 0 0 125 0 125 40 0 40 0 0 85 0 85
-40 0 -40 0 0 40 0 40 40 0 40 0 0 85 0 85 -125 0 -125 0 0 85 0 85 40 0 40 0
0 40 0 40 -80 0 -80 0 0 40 0 40 -45 0 -45 0 0 45 0 45 -40 0 -40 0 0 -45 0
-45 -40 0 -40 0 0 -80 0 -80 40 0 40 0 0 -85 0 -85 40 0 40 0 0 85 0 85 45 0
45 0 0 -85 0 -85 -45 0 -45 0 0 -85 0 -85 45 0 45 0 0 -40 0 -40 -45 0 -45 0
0 -165 0 -165 -40 0 -40 0 0 165 0 165 -125 0 -125 0 0 40 0 40 125 0 125 0 0
85 0 85 -165 0 -165 0 0 85 0 85 -45 0 -45 0 0 125 0 125 85 0 85 0 0 80 0 80
-40 0 -40 0 0 85 0 85 40 0 40 0 0 85 0 85 125 0 125 0 0 -85 0 -85 85 0 85 0
0 -165 0 -165 80 0 80 0 0 80 0 80 -40 0 -40 0 0 170 0 170 85 0 85 0 0 40 0
40 85 0 85 0 0 85 0 85 -45 0 -45 0 0 85 0 85 125 0 125 0 0 -85z m3510 0 l0
-85 40 0 40 0 0 85 0 85 85 0 85 0 0 -85 0 -85 -85 0 -85 0 0 -85 0 -85 -40 0
-40 0 0 85 0 85 -45 0 -45 0 0 85 0 85 45 0 45 0 0 -85z m7680 0 l0 -85 -45 0
-45 0 0 85 0 85 45 0 45 0 0 -85z m-19450 -170 l0 -85 -45 0 -45 0 0 85 0 85
45 0 45 0 0 -85z m8760 40 l0 -45 -40 0 -40 0 0 -40 0 -40 40 0 40 0 0 -40 0
-40 -40 0 -40 0 0 -85 0 -85 -40 0 -40 0 0 125 0 125 -45 0 -45 0 0 85 0 85
125 0 125 0 0 -45z m6930 -40 l0 -85 -40 0 -40 0 0 85 0 85 40 0 40 0 0 -85z
m-1250 -125 l0 -40 -40 0 -40 0 0 40 0 40 40 0 40 0 0 -40z m-7430 -125 l0
-85 -40 0 -40 0 0 85 0 85 40 0 40 0 0 -85z m1500 40 l0 -45 -40 0 -40 0 0 45
0 45 40 0 40 0 0 -45z m920 -40 l0 -85 -40 0 -40 0 0 85 0 85 40 0 40 0 0 -85z
m4680 0 l0 -85 -45 0 -45 0 0 85 0 85 45 0 45 0 0 -85z m1920 0 l0 -85 40 0
40 0 0 -85 0 -85 -40 0 -40 0 0 -40 0 -40 -45 0 -45 0 0 40 0 40 -40 0 -40 0
0 170 0 170 85 0 85 0 0 -85z m1750 0 l0 -85 -40 0 -40 0 0 85 0 85 40 0 40 0
0 -85z m-12690 -210 l0 -125 -40 0 -40 0 0 -40 0 -40 -45 0 -45 0 0 80 0 80
45 0 45 0 0 85 0 85 40 0 40 0 0 -125z m6510 40 l0 -85 -40 0 -40 0 0 85 0 85
40 0 40 0 0 -85z m170 0 l0 -85 -45 0 -45 0 0 85 0 85 45 0 45 0 0 -85z m670
0 l0 -85 -45 0 -45 0 0 85 0 85 45 0 45 0 0 -85z m3170 0 l0 -85 -85 0 -85 0
0 85 0 85 85 0 85 0 0 -85z m750 0 l0 -85 -40 0 -40 0 0 85 0 85 40 0 40 0 0
-85z m-11690 -165 l0 -80 -40 0 -40 0 0 80 0 80 40 0 40 0 0 -80z m170 0 l0
-80 -40 0 -40 0 0 80 0 80 40 0 40 0 0 -80z m1080 0 l0 -80 -40 0 -40 0 0 80
0 80 40 0 40 0 0 -80z m170 0 l0 -80 45 0 45 0 0 80 0 80 40 0 40 0 0 -580 0
-580 -40 0 -40 0 0 80 0 80 -85 0 -85 0 0 500 0 500 40 0 40 0 0 -80z m920 0
l0 -80 -40 0 -40 0 0 -125 0 -125 -45 0 -45 0 0 80 0 80 -40 0 -40 0 0 -415 0
-415 -40 0 -40 0 0 40 0 40 -85 0 -85 0 0 210 0 210 -85 0 -85 0 0 85 0 85 85
0 85 0 0 40 0 40 -85 0 -85 0 0 40 0 40 125 0 125 0 0 45 0 45 170 0 170 0 0
80 0 80 40 0 40 0 0 -80z m5680 0 l0 -80 40 0 40 0 0 80 0 80 85 0 85 0 0 -80
0 -80 -85 0 -85 0 0 -45 0 -45 85 0 85 0 0 -165 0 -165 80 0 80 0 0 -375 0
-375 -250 0 -250 0 0 85 0 85 125 0 125 0 0 80 0 80 -40 0 -40 0 0 210 0 210
-40 0 -40 0 0 -85 0 -85 -45 0 -45 0 0 125 0 125 -40 0 -40 0 0 45 0 45 -40 0
-40 0 0 125 0 125 80 0 80 0 0 80 0 80 45 0 45 0 0 -80z m1420 0 l0 -80 40 0
40 0 0 -210 0 -210 -40 0 -40 0 0 -210 0 -210 40 0 40 0 0 -165 0 -165 85 0
85 0 0 -40 0 -40 40 0 40 0 0 40 0 40 85 0 85 0 0 165 0 165 40 0 40 0 0 -205
0 -205 -85 0 -85 0 0 -170 0 -170 -40 0 -40 0 0 125 0 125 -40 0 -40 0 0 -125
0 -125 -45 0 -45 0 0 170 0 170 -40 0 -40 0 0 -45 0 -45 -40 0 -40 0 0 45 0
45 -255 0 -255 0 0 40 0 40 -40 0 -40 0 0 85 0 85 40 0 40 0 0 -85 0 -85 45 0
45 0 0 165 0 165 -45 0 -45 0 0 170 0 170 -40 0 -40 0 0 40 0 40 -40 0 -40 0
0 -85 0 -85 -45 0 -45 0 0 85 0 85 45 0 45 0 0 85 0 85 80 0 80 0 0 -85 0 -85
45 0 45 0 0 85 0 85 85 0 85 0 0 80 0 80 40 0 40 0 0 -165 0 -165 -125 0 -125
0 0 -85 0 -85 165 0 165 0 0 85 0 85 45 0 45 0 0 210 0 210 -45 0 -45 0 0 80
0 80 45 0 45 0 0 -80z m-10270 -125 l0 -45 -45 0 -45 0 0 45 0 45 45 0 45 0 0
-45z m160 0 l0 -45 -40 0 -40 0 0 45 0 45 40 0 40 0 0 -45z m1510 0 l0 -45 40
0 40 0 0 -80 0 -80 -40 0 -40 0 0 -210 0 -210 -125 0 -125 0 0 125 0 125 -85
0 -85 0 0 210 0 210 210 0 210 0 0 -45z m5170 0 l0 -45 -40 0 -40 0 0 45 0 45
40 0 40 0 0 -45z m2670 0 l0 -45 -125 0 -125 0 0 45 0 45 125 0 125 0 0 -45z
m1170 -165 l0 -210 -40 0 -40 0 0 125 0 125 -40 0 -40 0 0 -125 0 -125 -45 0
-45 0 0 210 0 210 125 0 125 0 0 -210z m170 0 l0 -210 -40 0 -40 0 0 210 0
210 40 0 40 0 0 -210z m250 165 l0 -45 -85 0 -85 0 0 45 0 45 85 0 85 0 0 -45z
m250 0 l0 -45 -85 0 -85 0 0 45 0 45 85 0 85 0 0 -45z m170 0 l0 -45 -45 0
-45 0 0 45 0 45 45 0 45 0 0 -45z m-9600 -125 l0 -80 -45 0 -45 0 0 80 0 80
45 0 45 0 0 -80z m160 0 l0 -80 -40 0 -40 0 0 80 0 80 40 0 40 0 0 -80z
m-1920 -165 l0 -85 85 0 85 0 0 -85 0 -85 -125 0 -125 0 0 170 0 170 40 0 40
0 0 -85z m11190 0 l0 -85 -85 0 -85 0 0 85 0 85 85 0 85 0 0 -85z m250 0 l0
-85 40 0 40 0 0 85 0 85 45 0 45 0 0 -85 0 -85 40 0 40 0 0 -40 0 -40 -40 0
-40 0 0 -85 0 -85 -45 0 -45 0 0 -40 0 -40 -40 0 -40 0 0 165 0 165 -85 0 -85
0 0 85 0 85 85 0 85 0 0 -85z m-6010 -170 l0 -85 -40 0 -40 0 0 85 0 85 40 0
40 0 0 -85z m170 0 l0 -85 -45 0 -45 0 0 85 0 85 45 0 45 0 0 -85z m3670 0 l0
-85 -40 0 -40 0 0 85 0 85 40 0 40 0 0 -85z m-5430 -125 l0 -40 -40 0 -40 0 0
40 0 40 40 0 40 0 0 -40z m6520 -165 l0 -205 -45 0 -45 0 0 205 0 205 45 0 45
0 0 -205z m160 0 l0 -205 -40 0 -40 0 0 205 0 205 40 0 40 0 0 -205z m170 165
l0 -40 -40 0 -40 0 0 40 0 40 40 0 40 0 0 -40z m-2000 -125 l0 -85 -45 0 -45
0 0 85 0 85 45 0 45 0 0 -85z m580 0 l0 -85 -40 0 -40 0 0 85 0 85 40 0 40 0
0 -85z m-6090 -165 l0 -80 -45 0 -45 0 0 80 0 80 45 0 45 0 0 -80z m160 0 l0
-80 -40 0 -40 0 0 80 0 80 40 0 40 0 0 -80z m500 -45 l0 -125 -80 0 -80 0 0
45 0 45 40 0 40 0 0 80 0 80 40 0 40 0 0 -125z m7020 45 l0 -80 -45 0 -45 0 0
80 0 80 45 0 45 0 0 -80z m-1590 -165 l0 -85 -40 0 -40 0 0 85 0 85 40 0 40 0
0 -85z m170 0 l0 -85 -45 0 -45 0 0 85 0 85 45 0 45 0 0 -85z m-6260 -125 l0
-40 -45 0 -45 0 0 40 0 40 45 0 45 0 0 -40z m5920 -125 l0 -85 -40 0 -40 0 0
85 0 85 40 0 40 0 0 -85z m170 0 l0 -85 -40 0 -40 0 0 85 0 85 40 0 40 0 0
-85z m170 0 l0 -85 -45 0 -45 0 0 85 0 85 45 0 45 0 0 -85z m-170 -340 l0 -85
-40 0 -40 0 0 85 0 85 40 0 40 0 0 -85z m170 0 l0 -85 -45 0 -45 0 0 85 0 85
45 0 45 0 0 -85z m80 -250 l0 -85 -85 0 -85 0 0 85 0 85 85 0 85 0 0 -85z"/>
<path d="M20290 10060 l0 -40 40 0 40 0 0 40 0 40 -40 0 -40 0 0 -40z"/>
<path d="M18530 6260 l0 -80 45 0 45 0 0 80 0 80 -45 0 -45 0 0 -80z"/>
<path d="M16280 6220 l0 -40 40 0 40 0 0 40 0 40 -40 0 -40 0 0 -40z"/>
<path d="M20200 5925 l0 -165 85 0 85 0 0 -85 0 -85 -40 0 -40 0 0 -40 0 -40
40 0 40 0 0 40 0 40 85 0 85 0 0 250 0 250 -170 0 -170 0 0 -165z"/>
<path d="M16610 5970 l0 -40 45 0 45 0 0 40 0 40 -45 0 -45 0 0 -40z"/>
<path d="M16610 5550 l0 -210 85 0 85 0 0 210 0 210 -85 0 -85 0 0 -210z"/>
<path d="M19280 5635 l0 -45 45 0 45 0 0 45 0 45 -45 0 -45 0 0 -45z"/>
<path d="M19530 5425 l0 -85 85 0 85 0 0 85 0 85 -85 0 -85 0 0 -85z"/>
<path d="M19950 5425 l0 -85 40 0 40 0 0 85 0 85 -40 0 -40 0 0 -85z"/>
<path d="M16360 5260 l0 -80 45 0 45 0 0 -85 0 -85 40 0 40 0 0 85 0 85 -40 0
-40 0 0 80 0 80 -45 0 -45 0 0 -80z"/>
<path d="M19950 4970 l0 -40 40 0 40 0 0 40 0 40 -40 0 -40 0 0 -40z"/>
<path d="M24290 6385 l0 -45 45 0 45 0 0 45 0 45 -45 0 -45 0 0 -45z"/>
<path d="M14940 6010 l0 -80 45 0 45 0 0 80 0 80 -45 0 -45 0 0 -80z"/>
<path d="M21120 5845 l0 -85 40 0 40 0 0 85 0 85 -40 0 -40 0 0 -85z"/>
</g>
</svg>
